<?xml version="1.0" standalone="no"?>
<!DOCTYPE svg PUBLIC "-//W3C//DTD SVG 20010904//EN"
 "http://www.w3.org/TR/2001/REC-SVG-20010904/DTD/svg10.dtd">
<svg version="1.0" xmlns="http://www.w3.org/2000/svg"
 width="415.000000pt" height="415.000000pt" viewBox="0 0 415.000000 415.000000"
 preserveAspectRatio="xMidYMid meet">
<metadata>
Created by potrace 1.14, written by Peter Selinger 2001-2017
</metadata>
<g transform="translate(0.000000,415.000000) scale(0.100000,-0.100000)"
fill="#000000" stroke="none">
<path d="M1947 4104 c-8 -8 1 -24 14 -24 5 0 9 7 9 15 0 15 -12 20 -23 9z"/>
<path d="M1870 4090 c0 -5 4 -10 9 -10 5 0 18 -3 28 -6 16 -5 16 -4 -1 10 -23
18 -36 20 -36 6z"/>
<path d="M1835 4080 c-8 -13 -1 -24 14 -19 6 3 7 10 2 18 -6 10 -10 10 -16 1z"/>
<path d="M1775 4050 c-3 -5 -2 -10 4 -10 5 0 13 5 16 10 3 6 2 10 -4 10 -5 0
-13 -4 -16 -10z"/>
<path d="M2226 3993 c-4 -16 -8 -51 -10 -80 -3 -45 -1 -52 18 -57 33 -9 34 -8
25 37 -4 23 -8 59 -9 79 0 45 -16 58 -24 21z"/>
<path d="M2361 3992 c5 -15 8 -46 6 -70 -2 -23 -1 -42 2 -42 8 0 5 -85 -3 -99
-10 -15 -26 -14 -26 3 0 17 -22 26 -64 26 -18 0 -37 5 -43 11 -14 14 -83 18
-84 4 0 -5 -5 0 -11 13 -11 21 -37 29 -51 16 -3 -4 -35 -6 -69 -4 -35 1 -75 2
-90 2 -23 1 -26 4 -18 19 6 10 15 21 20 24 6 3 10 17 10 30 0 13 6 25 13 28 6
2 9 8 5 12 -11 11 -46 -23 -65 -62 -17 -36 -43 -45 -40 -13 1 11 6 20 13 20 6
0 12 11 12 25 0 20 -4 23 -18 15 -9 -5 -24 -20 -33 -33 -14 -22 -13 -24 20
-47 36 -25 31 -37 -12 -26 -16 4 -22 11 -19 21 4 9 0 15 -10 15 -18 0 -21 -21
-6 -36 6 -6 2 -10 -13 -12 -40 -3 -102 -1 -119 4 -10 3 -18 1 -18 -5 0 -6 8
-11 18 -11 15 -1 15 -2 1 -10 -9 -5 -28 -6 -45 0 -26 8 -27 9 -8 15 12 4 30
26 41 51 18 39 19 45 5 56 -13 11 -15 10 -9 -4 4 -12 1 -18 -9 -18 -8 0 -12
-5 -8 -11 4 -7 -2 -6 -17 1 -18 10 -24 10 -27 1 -2 -7 -15 -16 -28 -21 -15 -6
-24 -17 -24 -32 0 -21 0 -21 -14 -2 -11 14 -17 16 -27 7 -6 -6 -18 -9 -26 -6
-13 5 -13 2 -3 -16 11 -21 10 -22 -8 -12 -16 8 -25 5 -48 -15 -16 -14 -44 -32
-63 -41 -39 -19 -248 -223 -383 -374 -97 -110 -228 -286 -250 -336 -6 -15 -18
-35 -26 -44 -7 -9 -19 -63 -27 -120 -7 -57 -25 -160 -39 -229 -35 -169 -45
-306 -29 -417 15 -107 48 -235 74 -285 11 -21 19 -42 19 -48 0 -6 11 -27 24
-48 13 -21 38 -74 56 -118 18 -43 50 -108 72 -144 39 -67 114 -158 104 -128
-9 31 -26 300 -24 393 1 50 -2 119 -5 155 l-7 65 34 -98 c79 -230 213 -332
474 -361 23 -2 40 -1 37 4 -3 4 11 10 31 12 29 3 33 2 20 -7 -13 -10 -7 -12
32 -11 43 1 47 -1 44 -21 -2 -13 2 -23 7 -23 6 0 10 -3 10 -7 -5 -30 3 -34 24
-12 29 30 57 85 62 122 2 15 13 40 23 55 25 35 88 160 97 192 4 14 23 54 41
89 24 45 34 77 34 108 0 25 8 58 17 74 16 26 21 29 64 26 63 -5 69 -11 68 -65
0 -26 6 -65 14 -87 49 -130 154 -325 175 -325 7 0 10 5 6 11 -5 8 -1 8 14 0
11 -6 22 -14 24 -18 6 -15 137 -73 177 -79 22 -4 39 -9 37 -13 -2 -3 20 -7 50
-8 30 0 68 -2 84 -4 17 -1 36 3 42 9 8 8 5 9 -11 5 -42 -11 -20 5 31 22 145
47 264 175 298 320 7 28 14 57 18 65 3 8 7 25 8 37 7 56 27 78 84 89 30 6 58
9 61 8 10 -5 31 -186 29 -247 -1 -28 -1 -121 -1 -204 1 -142 2 -153 19 -153
24 0 46 -24 65 -72 12 -27 12 -38 4 -42 -8 -3 -8 -5 1 -5 17 -1 72 119 72 157
0 24 12 38 73 83 58 43 78 66 102 114 30 60 30 61 27 211 -1 83 -9 193 -17
245 -8 52 -22 157 -32 234 -15 131 -50 275 -52 215 -1 -30 -16 -55 -28 -47 -5
3 -19 27 -33 54 -13 26 -26 50 -29 53 -3 3 -14 20 -23 38 -16 30 -16 35 -3 48
38 39 12 138 -54 202 -38 38 -47 51 -40 67 7 19 8 19 8 -2 1 -22 18 -40 28
-29 6 6 -23 81 -41 105 -6 7 -11 20 -12 29 -4 25 -44 44 -44 20 0 -6 -3 -8 -7
-4 -9 8 -15 33 -17 68 0 14 -4 24 -8 21 -5 -2 -8 4 -8 13 0 10 -3 15 -6 11 -9
-8 16 -136 27 -143 5 -3 9 0 9 6 0 6 11 -2 25 -19 21 -24 26 -42 28 -90 1 -32
-1 -57 -5 -54 -5 2 -8 19 -8 37 0 34 -28 85 -31 56 -1 -8 0 -19 1 -25 1 -5 3
-43 5 -83 5 -108 -12 -77 -20 36 -4 53 -9 105 -11 115 -9 29 -19 19 -18 -18 1
-19 -2 -33 -6 -30 -4 2 -7 -6 -7 -20 0 -14 3 -23 7 -20 4 3 11 -37 15 -88 3
-50 8 -108 10 -127 11 -103 17 -146 22 -152 2 -5 -3 -8 -11 -8 -8 0 -17 -10
-19 -22 -3 -13 -4 -4 -3 19 0 24 5 43 9 43 5 0 6 4 3 8 -14 23 -33 181 -41
347 -5 83 -11 124 -21 135 -12 12 -14 10 -14 -17 0 -17 -3 -45 -7 -63 -4 -25
-3 -31 6 -26 9 6 12 -9 11 -61 0 -83 5 -147 14 -162 4 -6 1 -11 -6 -11 -11 0
-11 -2 0 -9 22 -14 25 -201 3 -201 -3 0 -7 30 -8 68 -1 37 -9 130 -17 207 -9
77 -18 181 -19 232 -3 86 -9 114 -23 101 -8 -9 -9 -118 0 -161 5 -27 4 -37 -3
-32 -7 3 -11 -2 -11 -14 0 -10 4 -21 10 -23 5 -1 12 -34 15 -72 5 -54 4 -67
-7 -64 -8 3 -15 29 -19 69 -11 108 -22 310 -21 379 1 40 -7 92 -19 134 -24 81
-34 84 -15 3 7 -31 9 -57 4 -57 -5 0 -4 -9 2 -19 5 -11 9 -68 9 -128 0 -59 0
-119 2 -133 3 -40 0 -52 -11 -45 -5 3 -10 2 -10 -4 0 -5 5 -11 10 -13 6 -2 12
-26 14 -53 2 -28 4 -50 5 -50 1 0 3 -40 5 -88 2 -48 1 -85 -2 -83 -3 3 -10 2
-16 -3 -8 -7 -11 23 -12 102 0 76 -4 112 -12 115 -7 2 -12 8 -12 13 0 6 4 8 9
5 13 -8 21 20 10 31 -6 6 -9 55 -7 117 2 58 -1 106 -5 106 -5 0 -6 13 -2 29 5
23 1 31 -20 45 -22 14 -25 14 -25 1 0 -8 4 -15 9 -15 15 0 19 -61 4 -67 -15
-6 -18 -33 -3 -33 6 0 10 -7 10 -15 0 -8 5 -15 10 -15 6 0 10 -5 10 -12 0 -6
-9 -3 -20 7 -20 18 -20 18 -17 -11 2 -17 6 -34 9 -39 3 -6 8 -41 11 -80 4 -44
3 -61 -3 -45 l-8 25 -1 -27 c-1 -19 4 -28 14 -28 13 0 14 -4 5 -21 -8 -15 -8
-24 0 -34 15 -17 3 -58 -13 -48 -8 4 -7 1 1 -9 14 -17 14 -98 0 -98 -4 0 -5
16 -2 35 3 22 1 35 -5 35 -15 0 -14 26 2 50 9 15 9 23 1 28 -6 4 -12 36 -13
72 -1 36 -4 83 -7 105 -11 85 -11 294 0 298 14 5 -7 134 -24 151 -10 8 -11 3
-6 -24 14 -87 14 -131 0 -137 -12 -4 -14 -21 -11 -74 2 -40 -1 -74 -7 -80 -8
-9 -8 -10 0 -6 8 5 13 -7 16 -33 4 -43 -2 -49 -22 -25 -8 10 -14 61 -16 143
-3 102 -7 128 -19 130 -20 5 -21 -8 -11 -205 3 -65 1 -105 -6 -109 -6 -4 -8 1
-3 15 4 12 2 21 -4 21 -6 0 -11 -11 -11 -25 0 -14 5 -25 11 -25 6 0 18 -8 27
-17 16 -16 16 -16 0 -10 -14 5 -16 0 -12 -34 3 -21 1 -39 -4 -39 -5 0 -7 -11
-4 -25 5 -29 -8 -126 -15 -107 -3 6 -11 12 -19 12 -16 0 -19 16 -4 25 6 4 10
12 9 18 -1 7 0 23 1 37 2 21 4 20 10 -10 l7 -35 2 37 c0 20 -3 39 -8 42 -4 3
-8 57 -9 121 0 84 3 113 11 108 9 -5 9 -3 1 8 -6 8 -14 41 -17 74 l-5 60 14
-45 c11 -36 13 -38 9 -11 -3 18 -5 42 -5 53 0 10 -4 16 -10 13 -6 -4 -10 17
-10 55 0 45 -3 61 -12 58 -7 -3 -13 -9 -14 -14 -1 -5 -5 -29 -10 -54 l-8 -45
-8 45 c-17 103 -19 110 -43 110 -20 0 -22 -5 -22 -42 1 -24 6 -46 12 -50 6 -5
5 -8 -3 -8 -16 0 -33 42 -41 100 -5 38 -10 46 -30 48 -18 3 -22 0 -18 -12 4
-9 2 -16 -4 -16 -6 0 -9 8 -8 18 3 32 -1 37 -33 50 -18 7 -41 18 -50 23 -24
13 -28 12 -29 -8 -1 -10 -4 -4 -8 12 -4 17 -3 33 2 36 12 9 -3 159 -20 192
-18 36 -35 36 -22 -1z m-746 -123 c-4 -5 -12 -9 -18 -8 -9 0 -8 2 1 6 6 2 9
10 6 15 -4 7 -2 8 5 4 6 -4 9 -12 6 -17z m-28 -34 c0 -8 -6 -16 -14 -19 -13
-5 -18 15 -6 27 11 11 20 8 20 -8z m-63 -40 c3 -10 -1 -18 -12 -22 -9 -4 -19
-10 -22 -13 -3 -4 -15 -10 -27 -14 -20 -7 -23 -4 -22 21 1 17 3 21 6 11 6 -26
27 -22 43 7 15 29 25 32 34 10z m806 -27 c0 -7 -4 -19 -9 -27 -6 -9 -8 -5 -8
13 0 14 3 26 8 26 5 0 9 -6 9 -12z m-83 -30 c-3 -8 -6 -5 -6 6 -1 11 2 17 5
13 3 -3 4 -12 1 -19z m-862 2 c-3 -5 -1 -10 5 -10 6 0 8 -4 5 -10 -10 -17 -25
-11 -25 10 0 11 5 20 11 20 5 0 7 -4 4 -10z m1053 -15 c-3 -3 -9 2 -12 12 -6
14 -5 15 5 6 7 -7 10 -15 7 -18z m-395 -10 c-3 -9 -8 -14 -10 -11 -3 3 -2 9 2
15 9 16 15 13 8 -4z m307 -20 c0 -14 -6 -25 -14 -25 -9 0 -12 8 -8 25 2 14 8
25 13 25 5 0 9 -11 9 -25z m160 9 c0 -8 -5 -12 -10 -9 -6 4 -8 11 -5 16 9 14
15 11 15 -7z m-256 -16 c-3 -4 -12 -8 -20 -8 -8 0 -14 4 -14 8 0 4 9 8 19 8
11 0 17 -4 15 -8z m-311 -13 c4 -8 2 -17 -3 -20 -6 -4 -10 3 -10 14 0 25 6 27
13 6z m210 -5 c-3 -12 -8 -19 -11 -16 -5 6 5 36 12 36 2 0 2 -9 -1 -20z m265
-37 c0 -26 -3 -32 -9 -22 -7 13 -2 59 6 59 2 0 3 -17 3 -37z m-581 -20 c-3
-10 -5 -2 -5 17 0 19 2 27 5 18 2 -10 2 -26 0 -35z m480 0 c-3 -10 -5 -4 -5
12 0 17 2 24 5 18 2 -7 2 -21 0 -30z m-70 -25 c-2 -13 -4 -5 -4 17 -1 22 1 32
4 23 2 -10 2 -28 0 -40z m255 18 c3 -25 0 -32 -10 -29 -7 3 -11 12 -8 20 3 8
6 21 6 29 0 27 8 14 12 -20z m25 -43 c1 -43 -1 -68 -4 -55 -2 12 -9 22 -14 22
-5 0 -9 7 -9 16 0 9 5 12 12 8 8 -5 9 2 5 24 -6 27 -1 62 8 62 1 0 2 -35 2
-77z m-85 42 c3 -14 1 -25 -3 -25 -5 0 -9 11 -9 25 0 14 2 25 4 25 2 0 6 -11
8 -25z m-830 -7 c-7 -7 -12 -8 -12 -2 0 14 12 26 19 19 2 -3 -1 -11 -7 -17z
m743 -8 c-3 -5 0 -10 7 -10 10 0 10 -2 -1 -9 -8 -5 -12 -18 -8 -30 3 -12 2
-21 -3 -21 -9 0 -18 51 -12 68 2 7 8 12 13 12 6 0 7 -4 4 -10z m-313 -25 c3
-14 1 -25 -3 -25 -5 0 -9 11 -9 25 0 14 2 25 4 25 2 0 6 -11 8 -25z m375 -12
c-3 -10 -5 -4 -5 12 0 17 2 24 5 18 2 -7 2 -21 0 -30z m-397 7 c0 -5 -5 -10
-11 -10 -5 0 -7 5 -4 10 3 6 8 10 11 10 2 0 4 -4 4 -10z m200 0 c0 -5 -2 -10
-4 -10 -3 0 -8 5 -11 10 -3 6 -1 10 4 10 6 0 11 -4 11 -10z m367 -37 c-3 -10
-5 -2 -5 17 0 19 2 27 5 18 2 -10 2 -26 0 -35z m89 -32 c4 -18 8 -21 13 -12 5
7 9 -18 10 -59 1 -40 4 -76 7 -81 3 -5 0 -17 -6 -26 -11 -16 -11 -16 -6 -1 3
10 1 20 -4 23 -6 4 -10 1 -10 -6 0 -7 -2 -10 -5 -7 -3 3 -7 61 -9 129 -2 68
-2 111 0 94 3 -16 7 -41 10 -54z m-227 30 c-6 -15 -9 -32 -8 -37 1 -5 1 -22 0
-37 -1 -25 -3 -27 -16 -13 -16 16 -20 30 -6 22 17 -11 18 19 2 32 -9 8 -10 11
-3 7 8 -4 12 3 12 23 0 31 8 45 21 37 4 -3 3 -18 -2 -34z m-202 -32 c-2 -13
-9 -25 -15 -27 -15 -5 -16 15 -1 24 6 3 8 18 5 33 -5 20 -4 22 4 9 6 -9 9 -27
7 -39z m373 5 c0 -19 5 -45 11 -56 8 -16 8 -19 -1 -13 -9 5 -10 1 -5 -14 4
-12 2 -21 -4 -21 -6 0 -11 12 -11 26 0 14 -7 32 -15 40 -8 9 -15 21 -15 27 0
7 7 3 15 -7 13 -18 14 -16 10 17 -3 21 -1 37 5 37 6 0 10 -16 10 -36z m-893
-16 c-3 -7 -5 -2 -5 12 0 14 2 19 5 13 2 -7 2 -19 0 -25z m799 -16 c8 -7 11
-18 8 -23 -9 -15 -33 23 -33 51 1 20 2 21 6 6 3 -11 11 -26 19 -34z m-391 18
c-3 -5 -12 -10 -18 -10 -7 0 -6 4 3 10 19 12 23 12 15 0z m210 -10 c3 -5 1
-10 -4 -10 -6 0 -11 5 -11 10 0 6 2 10 4 10 3 0 8 -4 11 -10z m-275 -40 c0 -5
-2 -10 -4 -10 -3 0 -8 5 -11 10 -3 6 -1 10 4 10 6 0 11 -4 11 -10z m267 -22
c-3 -8 -6 -5 -6 6 -1 11 2 17 5 13 3 -3 4 -12 1 -19z m182 -38 c2 10 5 9 11
-6 4 -11 5 -36 0 -55 l-8 -34 -1 38 c-1 20 -5 37 -11 37 -5 0 -9 19 -9 43 l2
42 7 -40 c4 -22 8 -33 9 -25z m-279 28 c0 -18 -2 -20 -9 -8 -6 8 -7 18 -5 22
9 14 14 9 14 -14z m357 -25 c-3 -27 -2 -61 1 -78 6 -26 8 -23 13 25 5 46 6 40
6 -33 -1 -74 -3 -87 -16 -85 -9 2 -17 12 -19 22 -2 11 0 16 6 12 6 -3 13 -2
16 3 3 5 0 11 -8 14 -20 8 -20 167 1 167 3 0 3 -21 0 -47z m-190 -5 c-3 -7 -5
-2 -5 12 0 14 2 19 5 13 2 -7 2 -19 0 -25z m-64 15 c-7 -3 -13 -11 -13 -20 0
-13 -2 -13 -15 1 -20 20 -19 21 13 22 15 1 21 -1 15 -3z m127 -19 c0 -2 -9 -4
-20 -4 -11 0 -20 4 -20 9 0 5 9 7 20 4 11 -3 20 -7 20 -9z m-30 -65 c0 -5 -4
-9 -10 -9 -5 0 -10 7 -10 16 0 8 5 12 10 9 6 -3 10 -10 10 -16z m57 -11 c-3
-8 -6 -5 -6 6 -1 11 2 17 5 13 3 -3 4 -12 1 -19z m204 -27 c-5 -9 -6 -23 -1
-31 9 -15 2 -41 -14 -52 -18 -12 -27 3 -11 18 8 9 14 23 14 32 -1 15 -2 15 -6
0 -7 -28 -21 -21 -15 7 2 14 9 22 15 18 6 -4 8 0 4 9 -6 18 1 30 14 22 5 -3 5
-13 0 -23z m-268 -22 c-7 -27 -24 -24 -19 4 3 12 5 27 5 32 1 6 5 4 10 -4 5
-7 6 -22 4 -32z m412 -117 c1 -64 4 -122 8 -128 4 -7 1 -14 -6 -17 -8 -3 -14
5 -15 22 -1 14 -7 28 -12 29 -6 2 -10 8 -10 13 0 6 5 7 12 3 8 -5 9 -2 4 12
-4 10 -10 33 -13 49 -4 23 -2 27 6 15 7 -9 11 -10 11 -3 0 6 -4 15 -10 18 -5
3 -10 36 -10 73 0 63 1 65 17 49 15 -15 18 -37 18 -135z m-300 80 c-6 -7 -54
32 -55 45 0 6 13 -1 30 -15 16 -14 28 -28 25 -30z m-540 29 c-3 -6 -11 -8 -17
-5 -6 4 -5 9 3 15 16 10 23 4 14 -10z m392 -58 c-3 -10 -5 -4 -5 12 0 17 2 24
5 18 2 -7 2 -21 0 -30z m-67 13 c0 -7 -9 -16 -20 -19 -15 -4 -20 0 -20 14 0
12 7 19 20 19 11 0 20 -6 20 -14z m258 -27 c-2 -32 -13 -46 -22 -30 -4 5 -2
12 4 16 5 3 10 15 10 26 0 10 2 19 5 19 3 0 4 -14 3 -31z m24 6 c-2 -14 -6
-25 -8 -25 -2 0 -4 11 -4 25 0 14 4 25 9 25 4 0 6 -11 3 -25z m-112 11 c0 -3
-4 -8 -10 -11 -5 -3 -10 -1 -10 4 0 6 5 11 10 11 6 0 10 -2 10 -4z m17 -18
c-3 -8 -6 -5 -6 6 -1 11 2 17 5 13 3 -3 4 -12 1 -19z m176 -50 c-7 -81 -18
-95 -17 -20 1 31 0 42 -3 25 -6 -48 -19 -41 -15 8 3 29 8 39 18 35 8 -3 14 -1
14 4 0 6 2 10 4 10 3 0 2 -28 -1 -62z m-563 36 c0 -8 -4 -12 -10 -9 -5 3 -10
10 -10 16 0 5 5 9 10 9 6 0 10 -7 10 -16z m270 -10 c0 -8 -4 -12 -10 -9 -5 3
-10 10 -10 16 0 5 5 9 10 9 6 0 10 -7 10 -16z m87 -6 c-3 -8 -6 -5 -6 6 -1 11
2 17 5 13 3 -3 4 -12 1 -19z m33 3 c0 -6 -4 -12 -8 -15 -5 -3 -9 1 -9 9 0 8 4
15 9 15 4 0 8 -4 8 -9z m74 -54 c7 -6 6 -7 -4 -4 -8 2 -16 12 -17 23 -2 13 -1
15 4 4 3 -8 11 -19 17 -23z m63 -29 c-3 -8 -6 -5 -6 6 -1 11 2 17 5 13 3 -3 4
-12 1 -19z m590 -25 c-3 -10 -5 -2 -5 17 0 19 2 27 5 18 2 -10 2 -26 0 -35z
m-31 -26 c2 -100 13 -248 20 -271 4 -12 7 -33 7 -48 -1 -16 -2 -42 -2 -60 -2
-51 -15 -22 -16 35 -1 92 -16 175 -33 182 -12 4 -13 -1 -8 -27 16 -75 18 -148
4 -148 -10 0 -9 -3 2 -10 9 -6 10 -10 3 -10 -15 0 -30 23 -17 27 7 2 7 27 2
71 -5 36 -8 77 -5 89 2 12 1 24 -4 25 -12 5 -15 91 -3 95 7 2 11 -4 11 -14 0
-57 4 -81 16 -86 10 -4 12 14 9 87 -2 50 -9 93 -14 95 -5 1 -1 9 9 17 10 7 18
13 18 14 0 0 1 -28 1 -63z m-556 29 c0 -3 -4 -8 -10 -11 -5 -3 -10 -1 -10 4 0
6 5 11 10 11 6 0 10 -2 10 -4z m159 -33 c0 -25 -1 -26 -9 -8 -12 27 -12 35 0
35 6 0 10 -12 9 -27z m-714 -12 c39 -7 83 -14 100 -17 16 -3 34 -8 40 -13 5
-4 20 -8 33 -9 32 -1 119 -31 160 -54 18 -10 38 -18 45 -18 7 0 35 -15 62 -34
28 -18 61 -37 74 -41 21 -6 88 -50 141 -92 8 -6 47 -35 85 -64 39 -29 72 -55
75 -59 3 -3 20 -16 38 -29 18 -12 42 -39 53 -59 68 -126 87 -161 92 -182 5
-21 4 -22 -36 -16 -74 12 -122 40 -133 76 -5 18 -16 36 -24 40 -8 4 -33 15
-55 26 -22 10 -53 31 -69 46 -17 16 -37 29 -45 30 -9 0 -27 2 -41 3 -14 1 -38
5 -55 9 -19 5 -25 4 -17 -2 8 -5 -13 -9 -60 -11 -199 -5 -234 -9 -302 -37 -14
-5 -17 -4 -12 4 4 7 2 12 -3 12 -6 0 -11 -4 -11 -10 0 -18 -20 -11 -21 8 -1
15 -2 15 -6 -1 -3 -11 -11 -16 -19 -13 -10 4 -14 -2 -14 -19 0 -13 -4 -27 -10
-30 -5 -3 -10 0 -10 7 0 10 -2 10 -9 -1 -6 -10 -11 -6 -19 15 -7 19 -11 23
-11 11 -1 -10 -7 -25 -15 -33 -10 -10 -13 -26 -9 -50 4 -25 2 -39 -8 -45 -16
-10 -221 -12 -268 -3 -17 4 -31 11 -31 16 0 8 -8 20 -37 53 -7 7 -13 17 -13
20 0 4 -16 27 -36 51 -34 41 -64 57 -64 33 0 -6 -5 -7 -12 -2 -18 10 -38 13
-38 4 0 -4 -24 -4 -53 -1 -29 3 -67 3 -84 -1 -18 -3 -36 -2 -42 4 -7 7 -25 6
-56 -3 -34 -9 -52 -10 -68 -2 -12 6 -43 13 -69 16 -41 4 -52 1 -80 -22 -18
-15 -35 -31 -37 -36 -3 -8 -13 -20 -73 -87 -13 -14 -36 -31 -52 -38 -29 -12
-29 -12 -22 20 3 17 6 38 6 46 0 8 5 11 12 7 6 -4 8 -3 4 4 -9 14 10 96 23
100 6 2 11 13 11 25 0 13 46 65 132 149 72 70 135 128 140 128 5 0 32 17 61
38 73 54 203 111 278 123 96 15 123 20 125 22 8 7 302 -3 359 -12z m1159 -148
c4 -160 -9 -131 -17 37 -4 83 -3 119 4 108 5 -9 11 -75 13 -145z m-220 112 c3
-9 0 -15 -9 -15 -12 0 -12 -5 -5 -26 11 -27 3 -124 -9 -124 -4 0 -8 18 -10 41
-1 28 2 39 10 34 8 -6 8 -2 0 14 -15 26 -11 91 5 91 7 0 14 -7 18 -15z m243
-7 c-3 -8 -6 -5 -6 6 -1 11 2 17 5 13 3 -3 4 -12 1 -19z m-404 -18 c-3 -12 -8
-19 -11 -16 -5 6 5 36 12 36 2 0 2 -9 -1 -20z m-82 -63 c-10 -9 -11 -8 -5 6 3
10 9 15 12 12 3 -3 0 -11 -7 -18z m162 -27 c-3 -12 -8 -19 -11 -16 -5 6 5 36
12 36 2 0 2 -9 -1 -20z m339 -57 c2 -24 0 -43 -4 -43 -5 0 -7 26 -7 58 1 61 6
55 11 -15z m-155 -65 c-3 -7 -5 -2 -5 12 0 14 2 19 5 13 2 -7 2 -19 0 -25z
m188 -18 c2 -22 -1 -40 -6 -40 -6 0 -5 -8 1 -19 5 -11 10 -31 10 -45 0 -14 5
-26 11 -26 17 0 41 -29 33 -41 -4 -8 -3 -9 4 -5 12 7 32 -23 31 -46 0 -7 -4
-4 -9 7 -6 14 -9 15 -10 5 -1 -10 -4 -9 -10 5 -6 15 -9 7 -8 -28 1 -26 -2 -50
-5 -54 -4 -3 -7 14 -7 39 0 65 -10 107 -24 102 -8 -3 -13 9 -14 33 -2 21 -8
42 -13 48 -11 10 -5 -78 6 -96 4 -5 -1 -6 -10 -3 -11 5 -15 16 -13 38 2 26 -1
32 -19 34 -21 3 -23 9 -23 55 1 50 1 51 15 27 l14 -25 2 35 2 35 6 -33 c9 -50
26 -44 22 8 -1 25 0 42 4 38 4 -4 9 -25 10 -48z m-198 -20 c-1 -11 -5 -20 -9
-20 -10 0 -10 4 -2 24 8 22 13 20 11 -4z m250 -62 c-3 -8 -6 -5 -6 6 -1 11 2
17 5 13 3 -3 4 -12 1 -19z m-17 -19 c0 -11 -4 -17 -10 -14 -5 3 -10 13 -10 21
0 8 5 14 10 14 6 0 10 -9 10 -21z m-95 -9 c3 -5 1 -10 -4 -10 -6 0 -11 5 -11
10 0 6 2 10 4 10 3 0 8 -4 11 -10z m2 -32 c0 -7 -9 -22 -19 -33 -16 -17 -18
-17 -14 -2 3 9 8 24 11 32 5 18 22 20 22 3z m26 -75 c-5 -11 -8 -12 -13 -2 -5
7 -6 19 -3 26 5 11 8 12 13 2 5 -7 6 -19 3 -26z m-739 18 c3 -4 -6 -6 -19 -3
-14 2 -25 6 -25 8 0 8 39 4 44 -5z m786 -30 c0 -16 -6 -33 -13 -39 -10 -8 -12
-2 -9 29 5 45 22 53 22 10z m14 -69 c3 -5 -1 -9 -9 -9 -8 0 -12 4 -9 9 3 4 7
8 9 8 2 0 6 -4 9 -8z m43 -24 c-3 -7 -5 -2 -5 12 0 14 2 19 5 13 2 -7 2 -19 0
-25z m50 -85 c-3 -10 -5 -2 -5 17 0 19 2 27 5 18 2 -10 2 -26 0 -35z m-40 -15
c-3 -8 -6 -5 -6 6 -1 11 2 17 5 13 3 -3 4 -12 1 -19z m-258 -30 c0 -28 -2 -30
-9 -13 -12 28 -12 45 0 45 6 0 10 -15 9 -32z m-163 11 c10 -17 -13 -36 -27
-22 -12 12 -4 33 11 33 5 0 12 -5 16 -11z m67 -4 c8 -18 -11 -31 -25 -17 -11
11 -3 32 12 32 4 0 10 -7 13 -15z m-1961 -4 c11 6 18 4 22 -7 4 -12 10 -13 26
-4 18 10 20 8 20 -20 0 -29 7 -34 48 -33 6 1 12 -2 12 -6 0 -4 16 -7 35 -6 19
0 35 -1 35 -3 0 -12 -32 -61 -53 -80 l-25 -24 -21 21 c-12 12 -30 21 -40 21
-11 0 -40 11 -64 23 -24 13 -54 26 -66 30 -26 6 -27 23 -1 65 16 26 24 31 38
23 11 -6 24 -6 34 0z m-232 -27 c0 -8 -7 -14 -15 -14 -15 0 -21 21 -9 33 10 9
24 -2 24 -19z m74 -5 c-8 -14 -34 -11 -34 4 0 8 3 17 7 20 9 9 34 -13 27 -24z
m1378 -96 c-11 -8 -13 -13 -4 -14 6 -1 17 -2 22 -3 26 -3 11 -21 -21 -24 -33
-3 -36 -1 -36 26 0 19 7 32 21 38 27 12 41 -5 18 -23z m53 7 c-3 -5 -12 -10
-18 -10 -7 0 -6 4 3 10 19 12 23 12 15 0z m-890 -30 c-3 -5 -10 -10 -16 -10
-5 0 -9 5 -9 10 0 6 7 10 16 10 8 0 12 -4 9 -10z m925 0 c0 -4 -7 -7 -15 -6
-23 3 -26 12 -5 13 11 1 20 -2 20 -7z m787 -347 c-3 -10 -5 -4 -5 12 0 17 2
24 5 18 2 -7 2 -21 0 -30z"/>
<path d="M3280 2636 c0 -8 4 -17 9 -20 10 -7 23 19 14 28 -11 11 -23 6 -23 -8z"/>
<path d="M2298 4004 c-10 -17 -8 -114 1 -133 7 -12 6 -22 -1 -29 -9 -9 -7 -12
10 -12 21 0 22 5 22 68 -1 62 -20 127 -32 106z"/>
<path d="M2082 3972 c-6 -17 -8 -33 -5 -36 9 -9 23 -7 21 2 0 4 2 15 7 25 4
10 3 23 -2 28 -7 7 -14 1 -21 -19z"/>
<path d="M2146 3969 c-10 -51 -7 -86 8 -98 19 -16 23 -7 25 67 2 48 -1 62 -12
62 -8 0 -17 -14 -21 -31z"/>
<path d="M2426 3987 c3 -10 9 -15 12 -12 3 3 0 11 -7 18 -10 9 -11 8 -5 -6z"/>
<path d="M2013 3984 c3 -4 -5 -21 -18 -38 -27 -36 -43 -86 -26 -86 6 0 11 5
11 10 0 6 11 10 24 10 21 0 24 4 23 38 0 20 3 45 7 55 6 13 4 17 -10 17 -9 0
-15 -3 -11 -6z"/>
<path d="M2486 3967 c3 -10 9 -15 12 -12 3 3 0 11 -7 18 -10 9 -11 8 -5 -6z"/>
<path d="M2438 3929 c3 -22 1 -30 -6 -25 -7 4 -5 -5 3 -21 8 -15 17 -49 20
-75 5 -36 10 -46 21 -41 8 3 12 13 10 22 -7 24 -18 94 -18 111 1 32 -9 60 -21
60 -9 0 -12 -10 -9 -31z"/>
<path d="M1765 3931 c3 -2 0 -10 -6 -18 -10 -11 -14 -10 -24 3 -11 15 -15 14
-44 -16 -17 -19 -30 -38 -28 -44 7 -20 32 -11 45 17 7 15 18 25 23 21 6 -3 5
-11 -3 -21 -10 -12 -9 -18 7 -29 17 -12 20 -11 34 19 8 17 19 34 23 35 4 2 8
12 8 22 0 12 -7 18 -20 17 -10 -1 -17 -3 -15 -6z"/>
<path d="M2504 3898 c4 -18 12 -63 19 -100 14 -75 31 -103 42 -69 4 12 2 27
-3 34 -5 7 -12 28 -16 47 -3 19 -8 45 -10 56 -5 26 -24 64 -33 64 -3 0 -3 -15
1 -32z"/>
<path d="M2054 3906 c-3 -8 0 -24 6 -36 11 -20 14 -21 27 -7 12 11 13 19 4 36
-13 24 -29 27 -37 7z"/>
<path d="M2570 3864 c0 -12 7 -41 16 -65 8 -24 16 -59 18 -77 3 -38 25 -68 27
-36 2 31 -2 56 -14 83 -13 32 -14 37 -16 59 0 10 -8 27 -16 38 -14 19 -14 19
-15 -2z"/>
<path d="M2641 3819 c11 -29 20 -71 21 -93 0 -39 12 -66 28 -66 19 0 -37 201
-58 208 -6 2 -2 -20 9 -49z"/>
<path d="M2690 3813 c0 -5 7 -21 15 -37 9 -16 18 -56 20 -90 3 -35 11 -67 20
-75 13 -14 15 -12 15 16 0 39 -49 193 -61 193 -5 0 -9 -3 -9 -7z"/>
<path d="M2750 3777 c0 -7 9 -32 20 -54 13 -28 18 -56 16 -87 -3 -38 0 -49 16
-57 18 -10 19 -8 13 38 -10 79 -65 214 -65 160z"/>
<path d="M2800 3752 c0 -4 4 -12 10 -18 5 -5 11 -20 13 -34 2 -13 9 -26 15
-28 16 -5 15 3 -8 48 -19 38 -30 49 -30 32z"/>
<path d="M2870 3684 c0 -11 3 -24 8 -28 4 -4 7 -11 8 -14 0 -4 4 -29 9 -57 5
-27 8 -65 8 -82 0 -22 4 -33 13 -33 9 0 14 11 14 31 0 39 -27 145 -45 179 -13
23 -14 23 -15 4z"/>
<path d="M2981 3565 c0 -5 4 -28 8 -50 5 -22 13 -65 16 -95 7 -58 11 -67 21
-57 8 8 -24 175 -37 197 -4 8 -8 11 -8 5z"/>
<path d="M2746 3545 c-9 -26 -7 -32 5 -12 6 10 9 21 6 23 -2 3 -7 -2 -11 -11z"/>
<path d="M3011 3545 c1 -19 18 -51 18 -35 0 8 -4 22 -9 30 -5 8 -9 11 -9 5z"/>
<path d="M3020 3488 c0 -4 4 -18 10 -32 5 -14 12 -45 14 -69 7 -53 25 -105 25
-72 0 38 -26 156 -38 168 -6 6 -11 8 -11 5z"/>
<path d="M3060 3450 c0 -11 4 -20 9 -20 5 0 7 9 4 20 -3 11 -7 20 -9 20 -2 0
-4 -9 -4 -20z"/>
<path d="M2811 3434 c0 -11 3 -14 6 -6 3 7 2 16 -1 19 -3 4 -6 -2 -5 -13z"/>
<path d="M3097 3409 c4 -13 8 -18 11 -10 2 7 -1 18 -6 23 -8 8 -9 4 -5 -13z"/>
<path d="M3071 3419 c-1 -8 19 -121 25 -141 3 -10 9 -18 13 -18 5 0 2 27 -5
59 -13 56 -32 113 -33 100z"/>
<path d="M2941 3334 c0 -11 3 -14 6 -6 3 7 2 16 -1 19 -3 4 -6 -2 -5 -13z"/>
<path d="M3176 3197 c3 -10 9 -15 12 -12 3 3 0 11 -7 18 -10 9 -11 8 -5 -6z"/>
<path d="M2750 3169 c0 -11 4 -18 10 -14 5 3 7 12 3 20 -7 21 -13 19 -13 -6z"/>
<path d="M2735 3020 c-3 -5 -2 -10 4 -10 5 0 13 5 16 10 3 6 2 10 -4 10 -5 0
-13 -4 -16 -10z"/>
<path d="M1326 1335 c-37 -43 -46 -61 -43 -82 4 -27 4 -27 12 -5 4 12 11 22
16 22 5 0 9 9 9 20 0 20 17 45 54 81 11 11 15 19 9 19 -6 0 -32 -25 -57 -55z"/>
<path d="M2175 1368 c-16 -6 -59 -31 -94 -55 -35 -23 -68 -43 -74 -43 -7 0 -7
-4 1 -12 7 -7 12 -20 12 -31 0 -10 4 -16 9 -13 5 3 11 -4 14 -15 4 -16 2 -19
-10 -15 -11 4 -13 2 -10 -9 4 -8 0 -21 -8 -29 -20 -19 -21 -43 -2 -27 8 6 17
8 20 4 4 -3 7 2 7 13 0 11 9 26 19 33 13 10 18 23 16 43 -3 19 0 26 7 22 7 -5
9 0 5 15 -4 18 -3 20 9 10 8 -6 14 -18 14 -25 0 -8 5 -14 11 -14 6 0 8 10 5
23 -3 12 -3 16 0 9 5 -10 9 -10 20 -1 11 9 15 8 20 -5 8 -20 24 -21 24 -2 0 8
5 18 12 22 7 4 8 3 4 -4 -4 -7 -3 -12 2 -12 13 0 24 29 15 42 -3 7 -1 8 5 4 7
-4 12 -2 12 3 0 18 -5 26 -12 24 -5 -2 -8 1 -8 5 0 17 50 33 70 22 16 -8 18
-8 14 5 -4 8 -18 15 -33 15 -14 0 -35 2 -46 5 -11 2 -33 -1 -50 -7z"/>
<path d="M1680 1350 c-19 -4 -28 -8 -20 -9 13 -1 13 -2 0 -11 -9 -6 -11 -10
-3 -10 7 0 10 -7 6 -16 -4 -10 1 -22 11 -30 10 -7 15 -17 11 -23 -9 -16 -32
-13 -39 5 -3 8 -10 12 -16 9 -12 -7 -14 -26 -2 -24 18 3 24 -2 13 -14 -8 -11
-6 -13 12 -12 12 1 30 -5 40 -13 9 -8 17 -12 17 -7 0 4 7 2 16 -6 13 -10 17
-10 24 1 4 7 15 10 25 6 12 -4 16 -2 12 8 -3 8 1 17 9 20 8 3 14 1 14 -5 0 -6
4 -8 9 -4 5 3 12 -4 16 -15 4 -11 11 -18 16 -15 5 3 17 1 27 -4 14 -7 25 -6
41 5 28 20 37 13 20 -15 -17 -27 -3 -40 17 -15 14 18 15 18 8 -6 -4 -17 -3
-22 4 -15 6 6 14 22 17 37 5 21 3 29 -9 34 -11 4 -14 15 -11 39 4 34 3 34 -43
41 -26 3 -75 21 -109 40 -63 35 -73 37 -133 24z m50 -90 c0 -5 -5 -10 -11 -10
-5 0 -7 5 -4 10 3 6 8 10 11 10 2 0 4 -4 4 -10z m-20 -30 c0 -5 -2 -10 -4 -10
-3 0 -8 5 -11 10 -3 6 -1 10 4 10 6 0 11 -4 11 -10z m26 -27 c-11 -11 -19 6
-11 24 8 17 8 17 12 0 3 -10 2 -21 -1 -24z m134 11 c0 -20 -7 -17 -20 6 -9 16
-8 18 5 14 8 -4 15 -12 15 -20z m110 -24 c0 -5 -5 -10 -11 -10 -5 0 -7 5 -4
10 3 6 8 10 11 10 2 0 4 -4 4 -10z"/>
<path d="M2561 1336 c-7 -9 -17 -13 -22 -10 -5 3 -9 -1 -9 -8 0 -9 -3 -9 -10
2 -8 13 -10 12 -10 -2 0 -10 3 -18 8 -19 50 -5 62 -4 57 9 -2 7 0 10 5 7 6 -3
10 -14 10 -25 0 -10 7 -21 16 -24 25 -10 27 -7 13 11 -10 11 -10 14 -1 9 8 -5
12 0 12 15 0 35 14 12 14 -24 1 -21 6 -32 16 -33 8 0 18 -2 23 -4 13 -5 27 -7
44 -9 9 0 13 -4 10 -8 -4 -3 0 -16 8 -29 25 -39 -5 -47 -102 -28 -22 4 -48 -1
-90 -19 -32 -14 -80 -28 -107 -31 -27 -3 -54 -10 -61 -16 -6 -5 -15 -8 -18 -5
-4 3 -4 2 -1 -2 3 -4 13 -8 22 -8 9 0 17 -6 16 -12 -1 -7 -2 -40 -2 -72 -2
-50 -5 -61 -22 -66 -11 -3 -25 -15 -31 -27 -10 -18 -8 -19 13 -13 l23 7 -22
-16 c-12 -9 -27 -14 -35 -13 -7 2 -10 2 -5 0 4 -3 5 -9 1 -14 -7 -12 0 -11 33
4 37 16 63 39 57 49 -3 4 3 9 13 10 10 0 23 2 29 2 6 1 27 18 46 39 20 20 41
37 48 37 7 0 11 3 7 6 -3 4 9 20 27 38 18 17 41 43 50 58 18 27 19 27 42 10
18 -12 24 -24 21 -44 -2 -17 2 -29 11 -33 10 -4 13 0 9 15 -3 11 -1 23 5 26 7
4 7 9 -1 13 -6 4 -2 12 11 20 19 12 20 11 14 -6 -5 -15 -3 -14 13 4 10 12 22
43 26 69 9 60 -1 71 -136 157 -32 21 -51 15 -43 -11 4 -11 0 -9 -13 6 -17 21
-21 22 -32 8z m-121 -300 c0 -8 -7 -19 -15 -26 -13 -10 -15 -9 -15 12 0 14 3
28 6 31 9 9 24 -2 24 -17z"/>
<path d="M2256 1326 c19 -14 19 -15 -3 -36 -13 -11 -23 -23 -23 -25 0 -3 10
-3 23 -1 30 4 67 -14 67 -33 0 -12 3 -12 12 -3 16 16 28 15 28 -3 0 -8 4 -15
10 -15 17 0 -2 31 -24 40 -11 4 -25 8 -30 8 -5 0 -18 19 -29 41 -12 23 -28 41
-36 41 -11 0 -10 -4 5 -14z"/>
<path d="M1392 1318 c-16 -16 -15 -28 3 -28 8 0 15 9 15 20 0 23 -2 24 -18 8z"/>
<path d="M2366 1310 c5 -20 4 -22 -6 -10 -10 13 -11 13 -7 0 2 -8 9 -14 15
-13 6 1 15 -11 21 -27 5 -17 14 -30 18 -31 4 0 18 -2 30 -5 17 -3 21 0 17 11
-8 20 6 19 23 -2 12 -16 12 -14 1 10 -7 18 -17 26 -26 22 -9 -3 -12 0 -9 9 4
10 1 13 -9 9 -7 -3 -14 -9 -14 -14 0 -4 -7 -6 -15 -3 -14 6 -13 8 2 20 17 13
17 13 -1 14 -10 0 -25 8 -32 18 -12 15 -12 14 -8 -8z"/>
<path d="M1429 1303 c-13 -16 -12 -17 4 -4 9 7 17 15 17 17 0 8 -8 3 -21 -13z"/>
<path d="M2427 1309 c7 -7 15 -10 18 -7 3 3 -2 9 -12 12 -14 6 -15 5 -6 -5z"/>
<path d="M1337 1280 c-15 -28 -14 -29 3 -20 23 13 35 30 20 30 -6 0 -8 5 -5
10 3 6 4 10 1 10 -2 0 -11 -13 -19 -30z"/>
<path d="M1457 1291 c-4 -15 -10 -19 -24 -15 -14 6 -16 4 -6 -6 9 -10 9 -19 1
-34 -6 -12 -7 -18 -3 -14 4 4 17 3 28 -3 15 -9 18 -8 12 2 -6 9 -3 11 8 6 11
-4 17 -1 17 9 0 8 -4 12 -10 9 -15 -9 -12 8 5 31 8 10 14 24 15 29 0 6 -5 3
-10 -5 -8 -12 -12 -13 -19 -2 -6 11 -10 9 -14 -7z"/>
<path d="M1526 1282 l-19 -27 24 22 c12 12 21 24 18 27 -2 2 -13 -8 -23 -22z"/>
<path d="M1627 1299 c7 -7 15 -10 18 -7 3 3 -2 9 -12 12 -14 6 -15 5 -6 -5z"/>
<path d="M2324 1295 c4 -24 16 -30 16 -7 0 12 -4 22 -9 22 -5 0 -8 -7 -7 -15z"/>
<path d="M2470 1280 c6 -11 15 -20 21 -20 6 0 8 -4 5 -9 -3 -5 1 -11 9 -14 9
-4 12 -1 8 9 -4 10 2 17 16 21 11 3 21 10 21 15 0 6 -11 3 -24 -5 -23 -15 -36
-13 -36 5 0 5 6 6 13 2 6 -4 9 -3 4 1 -4 5 -17 10 -28 12 -17 3 -18 0 -9 -17z"/>
<path d="M1573 1271 c-15 -23 -5 -35 15 -18 13 10 14 9 2 -9 -8 -12 -10 -29
-6 -40 14 -37 27 21 17 79 -2 13 -16 7 -28 -12z"/>
<path d="M2267 1247 c-3 -8 1 -14 8 -14 7 0 11 6 8 14 -3 7 -6 13 -8 13 -2 0
-5 -6 -8 -13z"/>
<path d="M1504 1231 c0 -11 4 -17 8 -15 4 3 8 12 8 20 0 8 -4 14 -8 14 -4 0
-8 -9 -8 -19z"/>
<path d="M1546 1206 c-13 -20 -13 -24 -2 -20 8 3 17 13 20 21 10 26 0 25 -18
-1z"/>
<path d="M2570 1220 c20 -13 33 -13 25 0 -3 6 -14 10 -23 10 -15 0 -15 -2 -2
-10z"/>
<path d="M1288 1203 c-21 -5 -29 -26 -16 -44 8 -11 9 -11 5 3 -3 9 -3 19 0 22
10 10 33 -15 33 -36 0 -10 5 -16 10 -13 6 4 8 11 5 16 -4 5 -2 9 2 9 5 0 9 9
10 20 2 17 -1 18 -18 10 -11 -7 -19 -7 -19 -1 0 5 6 12 13 14 15 6 -1 6 -25 0z"/>
<path d="M1601 1186 c-16 -19 -11 -29 8 -17 7 5 12 14 9 21 -3 9 -8 7 -17 -4z"/>
<path d="M1811 1174 c0 -11 3 -14 6 -6 3 7 2 16 -1 19 -3 4 -6 -2 -5 -13z"/>
<path d="M2001 1174 c0 -11 3 -14 6 -6 3 7 2 16 -1 19 -3 4 -6 -2 -5 -13z"/>
<path d="M2657 1177 c3 -4 10 -6 16 -4 7 2 20 0 31 -5 14 -8 17 -7 14 4 -3 7
-19 13 -36 13 -17 1 -28 -3 -25 -8z"/>
<path d="M1346 1143 c-6 -14 -5 -15 5 -6 7 7 10 15 7 18 -3 3 -9 -2 -12 -12z"/>
<path d="M1415 1100 c-3 -4 7 -20 20 -34 14 -15 25 -29 25 -32 0 -2 15 -19 33
-37 37 -38 77 -92 77 -106 0 -5 14 -14 30 -20 17 -5 30 -15 30 -20 0 -6 7 -11
15 -11 8 0 15 -7 15 -15 0 -18 -21 -20 -38 -3 -7 7 -12 8 -12 2 0 -5 9 -15 19
-21 15 -10 22 -9 30 1 7 8 23 16 36 18 21 4 23 3 14 -13 -5 -11 -18 -19 -29
-19 -14 0 -18 -5 -13 -17 4 -11 8 -12 11 -5 2 7 8 12 13 12 4 0 6 -7 3 -15 -4
-8 -1 -15 5 -15 6 0 8 -7 4 -17 -4 -11 -3 -14 6 -9 7 5 10 19 6 36 -4 19 -1
33 10 44 22 22 38 20 68 -8 36 -34 117 -59 148 -47 27 11 27 11 -24 15 -20 2
-45 9 -55 18 -9 8 -29 19 -44 26 -16 6 -28 16 -28 20 0 5 -11 7 -24 5 -18 -4
-26 0 -31 17 -4 11 -17 25 -31 30 -13 6 -26 21 -30 37 -4 15 -14 33 -22 39
-10 7 -13 18 -8 30 6 16 9 16 17 4 8 -11 9 -6 5 20 l-6 35 20 -30 c21 -29 21
-29 18 -5 -3 24 -1 25 57 26 33 0 63 2 68 4 4 1 11 3 17 4 17 2 32 23 22 30
-6 3 -17 -1 -25 -9 -22 -22 -28 -19 -22 13 3 15 2 21 -1 15 -3 -7 -10 -13 -15
-13 -6 0 -8 4 -5 8 4 8 -51 7 -206 -1 -32 -1 -68 1 -80 7 -29 11 -87 15 -93 6z"/>
<path d="M1340 1092 c0 -5 7 -9 15 -9 8 0 12 4 9 9 -3 4 -9 8 -15 8 -5 0 -9
-4 -9 -8z"/>
<path d="M1886 1083 c-4 -9 -1 -21 5 -27 9 -8 10 -7 6 6 -3 9 -1 18 6 21 8 2
8 5 0 10 -6 4 -14 -1 -17 -10z"/>
<path d="M1878 1023 c7 -3 16 -2 19 1 4 3 -2 6 -13 5 -11 0 -14 -3 -6 -6z"/>
<path d="M2687 1008 c5 -23 5 -23 -11 -3 -17 20 -17 20 -6 -2 15 -32 30 -38
48 -19 16 16 16 17 0 10 -12 -4 -18 -1 -18 9 0 9 -4 18 -9 21 -5 4 -7 -4 -4
-16z"/>
<path d="M2250 862 c-34 -17 -42 -24 -59 -51 -4 -7 -22 -14 -40 -16 -18 -1
-37 -7 -44 -14 -6 -6 -25 -11 -41 -11 -17 0 -38 -5 -46 -11 -11 -8 -3 -9 30
-4 25 4 61 9 80 12 19 2 47 16 62 30 19 19 34 24 53 21 22 -5 26 -2 22 13 -3
12 3 25 16 34 28 20 11 18 -33 -3z"/>
<path d="M1595 850 c4 -6 11 -8 16 -5 14 9 11 15 -7 15 -8 0 -12 -5 -9 -10z"/>
<path d="M1399 823 c-13 -16 -12 -17 4 -4 16 13 21 21 13 21 -2 0 -10 -8 -17
-17z"/>
<path d="M2655 810 c3 -5 8 -10 11 -10 2 0 4 5 4 10 0 6 -5 10 -11 10 -5 0 -7
-4 -4 -10z"/>
<path d="M1419 763 c-13 -16 -12 -17 3 -5 13 10 17 10 21 0 4 -8 6 -7 6 5 1 9
-3 17 -8 17 -5 0 -15 -8 -22 -17z"/>
<path d="M2610 736 c0 -2 8 -10 18 -17 15 -13 16 -12 3 4 -13 16 -21 21 -21
13z"/>
<path d="M1439 718 c-6 -21 -6 -38 1 -38 5 0 16 -3 25 -6 12 -5 16 -2 13 12
-3 19 -16 34 -30 34 -5 0 -8 -1 -9 -2z"/>
<path d="M1420 645 c0 -8 2 -15 4 -15 2 0 6 7 10 15 3 8 1 15 -4 15 -6 0 -10
-7 -10 -15z"/>
<path d="M1458 643 c-10 -2 -18 -9 -18 -14 0 -6 8 -5 20 1 11 6 20 13 20 15 0
3 -1 4 -2 4 -2 -1 -11 -3 -20 -6z"/>
<path d="M1450 610 c-18 -12 -2 -12 25 0 13 6 15 9 5 9 -8 0 -22 -4 -30 -9z"/>
<path d="M1444 578 c3 -10 1 -18 -4 -18 -6 0 -10 5 -10 11 0 5 -5 7 -11 3 -8
-5 -8 -9 1 -14 8 -5 9 -16 5 -30 -5 -16 -3 -21 6 -18 18 6 29 52 17 69 -8 11
-9 10 -4 -3z"/>
<path d="M1461 519 c-11 -19 -11 -21 3 -16 11 4 16 1 17 -11 0 -10 3 -12 6 -4
2 6 9 10 14 6 5 -3 9 2 9 11 0 12 -5 15 -16 11 -12 -4 -15 -2 -10 9 8 23 -7
18 -23 -6z"/>
<path d="M1801 535 c0 -16 25 -45 32 -38 4 3 7 13 7 22 0 13 -2 13 -9 2 -7
-11 -11 -10 -20 5 -6 11 -10 15 -10 9z"/>
<path d="M1596 514 c-3 -8 -10 -12 -16 -9 -5 3 -10 2 -10 -4 0 -6 -8 -8 -17
-5 -11 3 -9 0 3 -7 18 -9 25 -8 43 10 11 11 16 23 12 26 -5 2 -12 -2 -15 -11z"/>
<path d="M1528 513 c6 -2 18 -2 25 0 6 3 1 5 -13 5 -14 0 -19 -2 -12 -5z"/>
<path d="M1850 505 c0 -8 4 -15 10 -15 5 0 7 7 4 15 -4 8 -8 15 -10 15 -2 0
-4 -7 -4 -15z"/>
<path d="M2176 507 c3 -10 9 -15 12 -12 3 3 0 11 -7 18 -10 9 -11 8 -5 -6z"/>
<path d="M1880 494 c0 -8 5 -12 10 -9 6 3 10 10 10 16 0 5 -4 9 -10 9 -5 0
-10 -7 -10 -16z"/>
<path d="M1950 500 c0 -5 5 -10 11 -10 5 0 7 -4 4 -10 -3 -5 1 -10 9 -10 22 0
20 17 -4 30 -14 7 -20 7 -20 0z"/>
<path d="M2031 473 l-1 -43 21 21 c14 14 29 19 45 16 25 -4 29 0 16 19 -9 15
-62 15 -63 0 0 -6 -4 -2 -9 9 -7 15 -9 10 -9 -22z"/>
<path d="M1415 490 c-3 -5 -1 -10 4 -10 6 0 20 -9 31 -20 18 -18 56 -18 45 1
-3 4 -13 5 -22 2 -13 -5 -15 -2 -10 11 4 10 3 15 -4 11 -5 -4 -16 -2 -24 5 -9
7 -15 8 -20 0z"/>
<path d="M1591 466 c-10 -12 -8 -17 8 -25 13 -8 22 -8 26 -1 4 6 3 10 -2 9
-27 -5 -35 1 -23 16 7 8 10 15 7 15 -2 0 -10 -6 -16 -14z"/>
<path d="M1660 471 c0 -6 4 -13 10 -16 6 -3 7 1 4 9 -7 18 -14 21 -14 7z"/>
<path d="M1485 436 c-15 -11 -25 -12 -40 -4 -11 6 0 -11 25 -38 25 -27 75 -82
113 -123 38 -42 67 -67 67 -57 0 9 7 16 15 16 12 0 13 -4 4 -18 -16 -25 -6
-40 61 -95 42 -34 75 -50 133 -66 91 -25 127 -27 127 -7 0 20 -21 31 -30 16
-6 -9 -12 -10 -26 -1 -18 10 -18 10 -1 11 10 0 17 6 15 13 -6 17 -32 16 -40
-3 -5 -11 -7 -9 -7 7 -1 12 -6 25 -12 29 -7 4 -9 0 -5 -12 3 -11 1 -26 -5 -34
-9 -12 -10 -12 -5 4 5 13 2 17 -9 12 -8 -3 -15 -1 -15 3 0 5 -10 7 -22 4 -18
-4 -20 -3 -12 6 15 16 6 51 -11 45 -8 -3 -18 4 -24 15 -13 24 -14 34 -2 27 5
-3 14 1 21 9 10 11 9 18 -4 30 -14 14 -16 14 -21 -8 -5 -19 -11 -23 -35 -19
-16 2 -35 11 -41 18 -10 12 -8 13 7 7 17 -6 17 -5 5 10 -7 9 -22 17 -31 17
-10 0 -20 6 -23 13 -3 9 -8 9 -21 -2 -15 -13 -18 -12 -23 7 -3 12 -9 20 -13
17 -4 -2 -6 6 -5 20 3 18 -1 22 -13 17 -15 -5 -15 -4 -3 12 13 15 12 18 -7 23
-12 3 -19 9 -16 14 3 5 10 6 16 3 7 -4 8 -2 4 4 -4 6 -13 9 -21 5 -11 -4 -13
-1 -9 11 5 12 2 15 -11 10 -15 -6 -16 -4 -6 14 6 11 11 23 11 26 0 11 -36 6
-55 -8z m302 -238 c-3 -8 -6 -5 -6 6 -1 11 2 17 5 13 3 -3 4 -12 1 -19z m-27
-18 c0 -5 -4 -10 -10 -10 -5 0 -10 5 -10 10 0 6 5 10 10 10 6 0 10 -4 10 -10z"/>
<path d="M1856 435 c-9 -26 -7 -32 5 -12 6 10 9 21 6 23 -2 3 -7 -2 -11 -11z"/>
<path d="M1995 419 c-4 -5 -4 -13 -1 -16 3 -4 6 0 6 8 0 11 2 11 10 -1 6 -9
10 -10 10 -3 0 17 -17 25 -25 12z"/>
<path d="M2050 414 c0 -8 4 -13 9 -9 6 3 14 -3 20 -12 6 -10 11 -12 11 -5 0 6
0 15 1 19 0 4 -9 10 -20 15 -16 5 -21 3 -21 -8z"/>
<path d="M1590 405 c6 -8 9 -18 6 -23 -3 -5 6 -7 19 -4 20 3 24 1 19 -12 -3
-9 -1 -16 6 -16 6 0 9 4 6 9 -4 5 0 12 6 14 10 4 10 6 0 6 -7 1 -10 6 -7 11 3
6 1 11 -4 11 -26 3 -30 4 -37 12 -14 13 -27 7 -14 -8z"/>
<path d="M1971 404 c0 -11 3 -14 6 -6 3 7 2 16 -1 19 -3 4 -6 -2 -5 -13z"/>
<path d="M1945 390 c-3 -5 -1 -10 4 -10 6 0 11 5 11 10 0 6 -2 10 -4 10 -3 0
-8 -4 -11 -10z"/>
<path d="M2606 345 c4 -8 8 -15 10 -15 2 0 4 7 4 15 0 8 -4 15 -10 15 -5 0 -7
-7 -4 -15z"/>
<path d="M1626 327 c-16 -12 -16 -13 2 -13 10 0 19 6 19 13 0 7 -1 13 -2 13
-1 0 -9 -6 -19 -13z"/>
<path d="M1660 329 c0 -5 5 -7 10 -4 6 3 10 8 10 11 0 2 -4 4 -10 4 -5 0 -10
-5 -10 -11z"/>
<path d="M2581 308 c-11 -30 -11 -31 8 -14 11 10 17 24 14 32 -7 20 -10 18
-22 -18z"/>
<path d="M1624 289 c-8 -14 14 -19 25 -6 8 10 7 14 -5 14 -8 0 -17 -4 -20 -8z"/>
<path d="M1735 280 c-3 -5 -1 -10 4 -10 6 0 11 5 11 10 0 6 -2 10 -4 10 -3 0
-8 -4 -11 -10z"/>
<path d="M2528 238 c-10 -10 -14 -18 -9 -18 10 0 36 29 30 34 -2 1 -12 -6 -21
-16z"/>
<path d="M1740 230 c-8 -5 -12 -12 -9 -15 4 -3 12 1 19 10 14 17 11 19 -10 5z"/>
<path d="M1921 204 c0 -11 3 -14 6 -6 3 7 2 16 -1 19 -3 4 -6 -2 -5 -13z"/>
<path d="M1860 200 c-9 -6 -10 -10 -3 -10 6 0 15 5 18 10 8 12 4 12 -15 0z"/>
<path d="M2433 163 c0 -7 4 -13 7 -13 4 0 12 6 18 13 8 10 6 13 -7 13 -10 0
-18 -6 -18 -13z"/>
<path d="M2380 130 c-9 -6 -10 -10 -3 -10 6 0 15 5 18 10 8 12 4 12 -15 0z"/>
<path d="M2080 113 c0 -12 -5 -25 -10 -28 -15 -9 7 -35 29 -35 12 0 13 2 3 8
-7 5 -10 16 -7 25 4 9 2 24 -4 34 -10 17 -10 16 -11 -4z"/>
<path d="M2118 73 c5 -21 7 -23 10 -9 2 10 0 22 -6 28 -6 6 -7 0 -4 -19z"/>
<path d="M2210 81 c0 -4 11 -6 25 -3 14 2 25 6 25 8 0 2 -11 4 -25 4 -14 0
-25 -4 -25 -9z"/>
<path d="M2020 50 c-13 -8 -12 -10 3 -10 9 0 17 5 17 10 0 12 -1 12 -20 0z"/>
</g>
</svg>
